<?xml version="1.0" encoding="UTF-8"?>
<svg xmlns="http://www.w3.org/2000/svg" xmlns:xlink="http://www.w3.org/1999/xlink" width="16px" height="16px" viewBox="0 0 16 16" version="1.1">
<g id="surface1">
<path style=" stroke:none;fill-rule:nonzero;fill:rgb(0%,0%,0%);fill-opacity:1;" d="M 11.902344 10.238281 L 13.855469 2.574219 L 16 2.574219 L 16 1.367188 L 12.921875 1.367188 L 12.460938 3.175781 L 0 3.167969 L 1.324219 10.238281 Z M 12.152344 4.378906 L 10.964844 9.035156 L 2.324219 9.035156 L 1.453125 4.371094 Z M 12.152344 4.378906 "/>
<path style=" stroke:none;fill-rule:nonzero;fill:rgb(0%,0%,0%);fill-opacity:1;" d="M 10.25 14.632812 C 11.3125 14.632812 12.175781 13.769531 12.175781 12.707031 C 12.175781 11.640625 11.3125 10.777344 10.25 10.777344 L 2.988281 10.777344 C 1.925781 10.777344 1.0625 11.640625 1.0625 12.707031 C 1.0625 13.769531 1.925781 14.632812 2.988281 14.632812 C 4.050781 14.632812 4.917969 13.769531 4.917969 12.707031 C 4.917969 12.449219 4.867188 12.207031 4.777344 11.980469 L 8.464844 11.980469 C 8.371094 12.207031 8.324219 12.449219 8.324219 12.707031 C 8.324219 13.769531 9.1875 14.632812 10.25 14.632812 Z M 3.710938 12.707031 C 3.710938 13.101562 3.386719 13.425781 2.988281 13.425781 C 2.589844 13.425781 2.269531 13.101562 2.269531 12.707031 C 2.269531 12.308594 2.589844 11.980469 2.988281 11.980469 C 3.386719 11.980469 3.710938 12.308594 3.710938 12.707031 Z M 10.972656 12.707031 C 10.972656 13.101562 10.648438 13.425781 10.25 13.425781 C 9.851562 13.425781 9.527344 13.101562 9.527344 12.707031 C 9.527344 12.308594 9.851562 11.980469 10.25 11.980469 C 10.648438 11.980469 10.972656 12.308594 10.972656 12.707031 Z M 10.972656 12.707031 "/>
</g>
</svg>
